<svg width="138" height="72" viewBox="0 0 138 72" fill="none" xmlns="http://www.w3.org/2000/svg">
<path d="M27.0752 13.458L33.1523 24.1038L11.8903 58.2275L0.468325 57.6345L27.0752 13.458Z" fill="#581C87"/>
<path d="M97.6506 16.9423C99.436 14.7677 102.637 14.4313 104.836 16.1872C107.055 17.96 107.418 21.1964 105.645 23.416L67.595 71.0549L64.0138 57.9127L97.6506 16.9423Z" fill="#581C87"/>
<path d="M59.6266 10.1919C57.9869 7.90543 58.4888 4.72578 60.753 3.05547C63.0389 1.36913 66.2591 1.85519 67.9454 4.14112L104.14 53.2046L90.5185 53.2697L59.6266 10.1919Z" fill="#581C87"/>
<rect x="9" y="34.5322" width="120" height="4" fill="#BB80AC"/>
<path d="M97.74 17.0287C96.0481 14.6889 96.5571 11.4228 98.8806 9.70871C101.237 7.9703 104.559 8.4894 106.273 10.8638L137.12 53.5981L123.438 52.5677L97.74 17.0287Z" fill="#581C87"/>
<path d="M27.4314 16.4774C25.7395 14.1376 26.2485 10.8716 28.5721 9.15744V9.15744C30.9286 7.41903 34.2508 7.93813 35.9647 10.3125L66.8111 53.0468L53.1292 52.0165L27.4314 16.4774Z" fill="#581C87"/>
</svg>
